<svg width="60" height="30" viewBox="0 0 60 30" fill="none" xmlns="http://www.w3.org/2000/svg">
<path d="M59.1418 7.51171L52.349 6.29926C51.1104 5.34823 49.825 4.49687 48.4997 3.74977C44.1231 1.27198 39.373 -0.00658609 34.5679 2.55116e-05H33.3878C27.7173 0.00511122 22.1374 1.78361 17.157 5.17327L13.7288 7.5107C9.71598 7.56715 5.78043 8.90115 2.29411 11.385C0.877278 12.4007 0.00244141 14.2849 0 16.3259V23.7475C0 24.4382 0.447591 24.9976 1.00016 24.9976H4.35791C5.45003 28.8918 8.86108 30.9424 11.9767 29.5774C13.6918 28.8262 15.0399 27.1408 15.6409 24.9976H42.358C43.4501 28.8918 46.8612 30.9424 49.9768 29.5774C51.6915 28.8262 53.0399 27.1408 53.6409 24.9976H53.9998C54.1272 24.9976 54.2533 24.9676 54.3717 24.9086L57.6107 23.2842C59.0576 22.5681 60.0053 20.8176 60 18.8733V8.74908C60 8.1276 59.6342 7.60021 59.1418 7.51171ZM13.9189 23.4978C13.4766 26.2029 11.3635 27.9479 9.19922 27.3951C7.0345 26.8422 5.63843 24.2012 6.08073 21.4956C6.52344 18.7904 8.63647 17.0455 10.8008 17.5983C12.6632 18.0738 14.0002 20.1219 13.9998 22.498C13.9998 22.8336 13.9726 23.1688 13.9189 23.4978ZM31.9999 22.498H15.9998C15.9998 18.3561 13.3138 14.9985 10 14.9985C6.6862 14.9985 3.99984 18.3561 3.99984 22.498H1.99992V16.3259C2.00114 15.1811 2.49186 14.1237 3.28695 13.5551C6.55029 11.2264 10.2425 10.0007 13.9998 9.99917H31.9999V22.498ZM31.9999 7.49951H17.922L18.1148 7.36779C22.3901 4.46381 27.1391 2.81754 31.9999 2.55461V7.49951ZM33.9998 2.49968H34.5658C38.5958 2.49409 42.5891 3.45021 46.3322 5.3172L44.5862 7.49951H33.9998V2.49968ZM51.9189 23.4978C51.4766 26.2029 49.3636 27.9479 47.1989 27.3951C45.0346 26.8422 43.6385 24.2012 44.0808 21.4956C44.5231 18.7904 46.6365 17.0455 48.8008 17.5983C50.6632 18.0738 52.0003 20.1219 51.9999 22.498C51.9999 22.8336 51.9726 23.1688 51.9189 23.4978ZM58.0001 11.2487H55V13.7489H58.0001V18.8733C58.0025 19.7944 57.5533 20.6233 56.8681 20.9616L53.9998 22.4013C53.9998 22.2864 53.988 22.1725 53.9819 22.0575C53.9758 21.9426 53.9738 21.8078 53.964 21.6827C53.9538 21.5576 53.9339 21.4325 53.918 21.3079C53.9018 21.1828 53.89 21.0577 53.87 20.9443C53.8501 20.8303 53.8208 20.7042 53.7947 20.5852C53.7687 20.4667 53.7488 20.3467 53.7187 20.2302C53.6889 20.1143 53.6527 20.0029 53.619 19.889C53.5848 19.7755 53.5539 19.6581 53.5189 19.5452C53.4839 19.4328 53.4367 19.3305 53.3948 19.2243C53.3528 19.118 53.3118 19.0015 53.265 18.8942C53.2178 18.7869 53.1649 18.6953 53.1197 18.5956C53.0749 18.4955 53.02 18.3815 52.963 18.2793C52.9057 18.1766 52.8528 18.0957 52.7978 18.0032C52.7429 17.9106 52.6806 17.8018 52.6168 17.7056C52.5529 17.6095 52.4931 17.5342 52.4308 17.4554C52.369 17.3771 52.2998 17.2708 52.231 17.1833C52.1618 17.0959 52.0939 17.0267 52.0251 16.9494C51.956 16.8721 51.8819 16.7805 51.8058 16.6992C51.7301 16.6183 51.6528 16.5557 51.5771 16.4845C51.501 16.4133 51.425 16.3371 51.3452 16.2704C51.265 16.2043 51.1751 16.1458 51.0893 16.0756C51.003 16.0055 50.933 15.9505 50.852 15.8971C50.7711 15.8432 50.6702 15.7868 50.5782 15.7319C50.4862 15.6769 50.4142 15.6281 50.3292 15.5833C50.2441 15.5381 50.129 15.4908 50.0293 15.446C49.9292 15.4008 49.8641 15.3657 49.779 15.3321C49.6651 15.2884 49.5483 15.2568 49.4319 15.2207C49.3559 15.1984 49.283 15.1683 49.2061 15.1485C49.0832 15.117 48.9571 15.0997 48.8322 15.0768C48.7581 15.0646 48.6873 15.0443 48.6133 15.0356C48.4131 15.0107 48.2133 14.997 48.0033 14.997C44.6907 15.001 42.0064 18.3561 42.0032 22.4964H34.0002V9.99866H45C45.2653 9.99866 45.5196 9.86694 45.7068 9.63248L48.3 6.39132C49.3884 7.03874 50.4468 7.76244 51.4701 8.55888C51.5881 8.65093 51.72 8.71145 51.8579 8.73637L58.0001 9.83235V11.2487Z" fill="black"/>
</svg>
