<svg width="50" height="50" viewBox="0 0 50 50" fill="none" xmlns="http://www.w3.org/2000/svg">
<path d="M49.2493 12.6064C49.2436 12.6033 32.6088 6.35827 32.6024 6.3556C34.1355 2.89109 30.9178 -0.891188 27.1977 0.187229C26.8048 0.30167 26.5789 0.712132 26.6934 1.10466C26.8067 1.49643 27.2171 1.72341 27.6101 1.60897C29.5544 1.04249 31.5064 2.50924 31.5064 4.53332C31.5064 7.5744 27.5952 8.6841 25.9385 6.23849C25.2758 5.26078 25.2594 4.02329 25.7965 3.05741C25.9949 2.69997 25.8656 2.25022 25.5082 2.05109C25.1511 1.85273 24.7002 1.98205 24.5018 2.3391C23.3773 4.36433 23.9628 6.95794 25.9385 8.28966V12.1631C25.9385 12.5717 26.27 12.9032 26.6785 12.9032C27.0878 12.9032 27.4186 12.5717 27.4186 12.1631V8.93778C28.1228 9.10639 28.9074 9.10562 29.6612 8.89734V30.915C29.3381 30.915 28.1651 30.9128 27.4186 30.9128V15.1233C27.4186 14.714 27.0878 14.3833 26.6785 14.3833C26.27 14.3833 25.9385 14.714 25.9385 15.1233V30.9128C24.5987 30.9128 23.3979 31.1451 22.1379 31.8672C21.8083 31.2118 21.1296 30.7609 20.3472 30.7609H16.6748C15.5705 30.7609 14.6717 31.6589 14.6717 32.7629V33.947H2.22969C0.999452 33.947 0 34.9476 0 36.1767V45.1652C0 46.3959 0.999452 47.3953 2.22969 47.3953H14.6717V47.9969C14.6717 49.1013 15.5705 50 16.6748 50H20.3472C21.019 50 21.6149 49.6674 21.978 49.1573C23.7179 50.0431 23.7152 49.847 36.1931 49.847C38.3961 49.847 39.4581 47.1512 37.9464 45.6154C38.8905 44.6564 38.892 43.0836 37.9502 42.1226C38.8913 41.1602 38.8901 39.5916 37.9502 38.6326C39.3822 37.1715 38.5018 34.6435 36.4632 34.4196C36.7989 32.9319 35.5114 30.915 33.4115 30.915H31.1413V21.4538L37.1934 19.1814C37.5763 19.0383 37.7698 18.6122 37.6256 18.2292C37.4825 17.8466 37.0553 17.6532 36.6734 17.7963L31.1413 19.873V8.17827C31.366 8.01233 31.5743 7.82579 31.7646 7.62247L47.7685 13.6306L39.444 16.7564C39.0622 16.8994 38.8676 17.3267 39.0118 17.7093C39.1549 18.0912 39.5821 18.2857 39.9651 18.1415C39.9766 18.1373 49.2375 14.661 49.2486 14.6556C50.1759 14.2909 50.1786 12.9745 49.2493 12.6064ZM14.6717 45.9152H2.22969C1.81656 45.9152 1.4801 45.5788 1.4801 45.1652V36.1767C1.4801 35.7635 1.81656 35.4271 2.22969 35.4271H14.6717V45.9152ZM20.7436 48.3356C20.5384 48.5817 20.6726 48.5199 16.6748 48.5199C16.3864 48.5199 16.1518 48.2853 16.1518 47.9969C16.1518 46.1582 16.1518 33.3801 16.1518 32.7629C16.1518 32.4749 16.3864 32.241 16.6748 32.241H20.3472C20.6112 32.241 20.8699 32.452 20.8699 32.7884C20.8699 49.2428 20.9244 48.1255 20.7436 48.3356ZM22.35 47.6726V43.9506C23.6397 43.7427 24.8543 43.2869 25.9385 42.6327C25.9385 47.9153 25.9076 47.8241 26.0273 48.3669C24.7723 48.3669 23.6874 48.476 22.35 47.6726ZM28.341 48.3669H27.5891C27.3617 47.9561 27.4186 47.9114 27.4186 41.5462C27.6818 41.3135 27.9335 41.0667 28.1712 40.8073C28.2551 41.3143 28.4951 41.7702 28.8403 42.1226C27.8878 43.0923 27.9107 44.669 28.8441 45.6154C28.0995 46.3703 27.9557 47.4834 28.341 48.3669ZM36.1931 48.3669C35.6175 48.3669 31.3385 48.3669 30.5977 48.3669C29.9141 48.3669 29.4598 47.6952 29.6612 47.0489C29.7856 46.6492 30.1587 46.3592 30.5977 46.3592H36.1931C36.7337 46.3592 37.1735 46.7991 37.1735 47.34C37.1735 47.9759 36.6997 48.3669 36.1931 48.3669ZM36.0558 44.8715C34.4521 44.8715 32.219 44.8715 30.5977 44.8715C29.9244 44.8715 29.4556 44.2112 29.6612 43.552C29.7856 43.1526 30.1587 42.8623 30.5977 42.8623H36.1931C37.4344 42.8623 37.6137 44.8715 36.0558 44.8715ZM29.617 40.3534C29.617 39.8151 30.0545 39.3726 30.5977 39.3726H36.1931C36.6948 39.3726 37.1735 39.7583 37.1735 40.3999C37.1735 40.9416 36.7337 41.3814 36.1931 41.3814C35.7598 41.3814 35.619 41.3814 35.6228 41.3814C34.9221 41.3814 33.4561 41.3814 30.5977 41.3814C30.0957 41.3814 29.617 40.9965 29.617 40.3534ZM36.1931 35.8848C36.6948 35.8848 37.1735 36.2705 37.1735 36.9118C37.1735 37.4527 36.7337 37.8925 36.1931 37.8925C30.0827 37.8925 30.415 37.9429 30.1014 37.7575C29.8932 37.635 29.7341 37.4389 29.6612 37.2051V36.5745C29.9077 35.783 30.7148 35.8848 31.1413 35.8848H36.1931ZM33.4115 32.3948C34.9488 32.3948 35.4657 34.4036 34.6379 34.4036H33.8654C33.8784 34.4036 33.891 34.4036 33.9028 34.4047C30.275 34.4047 30.111 34.3284 29.4312 34.6996C28.2177 35.3512 27.8336 36.8316 28.3757 37.9684C27.1626 40.2882 24.9356 41.9548 22.35 42.448C22.35 39.859 22.35 36.4143 22.35 33.49C23.3002 32.8003 24.4675 32.3929 25.7275 32.3929C28.4989 32.3929 33.3981 32.3948 33.4115 32.3948Z" fill="white"/>
</svg>
