<svg width="48" height="50" viewBox="0 0 48 50" fill="none" xmlns="http://www.w3.org/2000/svg">
<path d="M45.9543 20.71C46.4937 20.71 46.9309 20.2727 46.9309 19.7334C46.9309 19.1941 46.4937 18.7568 45.9543 18.7568C45.415 18.7568 44.9778 19.1941 44.9778 19.7334C44.9778 20.2727 45.415 20.71 45.9543 20.71Z" fill="white"/>
<path d="M46.2891 23.1309C45.751 23.1309 45.3125 23.5684 45.3125 24.1074V27.5391C45.3115 28.0762 44.873 28.5146 44.3359 28.5156H43.3594V23.6328C43.3594 22.2939 43.2246 20.957 42.958 19.6572C42.6993 18.3906 42.3126 17.1445 41.8086 15.9541C41.3144 14.7852 40.7031 13.6582 39.9902 12.6035C39.2842 11.5586 38.4745 10.5771 37.5811 9.68457C36.6884 8.79102 35.707 7.98145 34.662 7.27539C33.6073 6.56348 32.4804 5.95117 31.3114 5.45703C30.121 4.95312 28.8749 4.56641 27.6083 4.30762C25.0097 3.77539 22.2557 3.77539 19.6571 4.30762C18.3904 4.56641 17.1444 4.95312 15.954 5.45703C14.785 5.95117 13.658 6.56348 12.6033 7.27539C11.5584 7.98145 10.577 8.79102 9.6835 9.68457C8.79082 10.5771 7.98125 11.5586 7.27529 12.6035C6.5624 13.6582 5.95098 14.7852 5.45693 15.9541C4.95303 17.1445 4.56631 18.3906 4.30742 19.6572C4.04102 20.957 3.90625 22.2939 3.90625 23.6328V28.5156H1.95312V23.6328C1.95312 17.8438 4.20898 12.3994 8.30273 8.30273C12.3994 4.20898 17.8428 1.95312 23.6328 1.95312H23.6357C32.5439 1.95312 40.6777 7.54004 43.876 15.8555C43.9482 16.0439 44.0741 16.2021 44.2401 16.3145C44.5028 16.4912 44.8417 16.5303 45.1376 16.417C45.6396 16.2236 45.8915 15.6582 45.6991 15.1562C45.6991 15.1562 45.6991 15.1553 45.6991 15.1543C44.8553 12.959 43.6873 10.9043 42.2294 9.04688C40.7831 7.20703 39.079 5.59375 37.162 4.25391C35.2206 2.89551 33.0955 1.8418 30.8476 1.12207C28.5234 0.37793 26.0966 0 23.6328 0C22.0293 0 20.4268 0.161133 18.87 0.480469C17.3524 0.791016 15.8604 1.25391 14.4335 1.85742C13.0331 2.44922 11.6825 3.18262 10.4188 4.03613C9.16787 4.88184 7.99121 5.85254 6.92178 6.92187C5.85234 7.99121 4.88174 9.16797 4.03604 10.4189C3.18252 11.6826 2.44912 13.0332 1.85723 14.4336C1.25371 15.8604 0.79082 17.3525 0.480273 18.8701C0.161035 20.4268 0 22.0293 0 23.6328V37.3047C0 43.2279 4.81895 48.0469 10.7422 48.0469H20.3009C20.9773 49.2133 22.239 50 23.6816 50C25.8355 50 27.5879 48.2477 27.5879 46.0938C27.5879 45.3825 27.3959 44.7156 27.0624 44.1406H32.959C33.4982 44.1406 33.9355 43.7034 33.9355 43.1641V31.4453C33.9355 30.906 33.4982 30.4688 32.959 30.4688H14.3066C13.7674 30.4688 13.3301 30.906 13.3301 31.4453V43.1641C13.3301 43.7034 13.7674 44.1406 14.3066 44.1406H20.3009C19.9674 44.7156 19.7754 45.3825 19.7754 46.0938H10.7422C5.8959 46.0938 1.95312 42.151 1.95312 37.3047V30.4688H3.90625V33.3984C3.90625 35.0139 5.22051 36.3281 6.83594 36.3281C8.45137 36.3281 9.76562 35.0139 9.76562 33.3984V25.5859C9.76562 23.9705 8.45137 22.6562 6.83594 22.6562C6.50059 22.6562 6.17861 22.7136 5.87832 22.8178C6.07764 18.3775 7.90176 14.2299 11.0653 11.0654C14.4228 7.70898 18.8866 5.85938 23.6328 5.85938C28.3789 5.85938 32.8428 7.70898 36.2001 11.0654C39.3637 14.2309 41.188 18.3776 41.3872 22.8178C41.0869 22.7136 40.765 22.6562 40.4297 22.6562C38.8143 22.6562 37.5 23.9705 37.5 25.5859V33.3984C37.5 35.0139 38.8143 36.3281 40.4297 36.3281C42.0451 36.3281 43.3594 35.0139 43.3594 33.3984V30.4688H44.3359C45.1182 30.4688 45.8545 30.1641 46.4072 29.6104C46.9609 29.0576 47.2656 28.3223 47.2656 27.5391V24.1074C47.2656 23.5684 46.8271 23.1309 46.2891 23.1309ZM15.2832 36.3281H31.9824V38.2812H15.2832V36.3281ZM31.9824 32.4219V34.375H15.2832V32.4219H31.9824ZM15.2832 40.2344H31.9824V42.1875H15.2832V40.2344ZM25.6348 46.0938C25.6348 47.1707 24.7586 48.0469 23.6816 48.0469C22.6047 48.0469 21.7285 47.1707 21.7285 46.0938C21.7285 45.0168 22.6047 44.1406 23.6816 44.1406C24.7586 44.1406 25.6348 45.0168 25.6348 46.0938ZM6.83594 24.6094C7.37441 24.6094 7.8125 25.0475 7.8125 25.5859V33.3984C7.8125 33.9369 7.37441 34.375 6.83594 34.375C6.29746 34.375 5.85938 33.9369 5.85938 33.3984V25.5859C5.85938 25.0475 6.29746 24.6094 6.83594 24.6094ZM41.4062 33.3984C41.4062 33.9369 40.9682 34.375 40.4297 34.375C39.8912 34.375 39.4531 33.9369 39.4531 33.3984V25.5859C39.4531 25.0475 39.8912 24.6094 40.4297 24.6094C40.9682 24.6094 41.4062 25.0475 41.4062 25.5859V33.3984Z" fill="white"/>
<path d="M28.496 17.439L26.5428 25.2514C26.412 25.7747 26.7301 26.3049 27.2533 26.4357C27.3328 26.4555 27.4126 26.4651 27.491 26.4651C27.9285 26.4651 28.3267 26.1689 28.4376 25.7252L30.3907 17.9127C30.5215 17.3894 30.2034 16.8593 29.6802 16.7284C29.157 16.598 28.6268 16.9157 28.496 17.439Z" fill="white"/>
<path d="M37.9638 17.1237C37.7817 16.858 37.4804 16.6992 37.1582 16.6992H33.3496C32.8104 16.6992 32.373 17.1364 32.373 17.6758C32.373 18.2151 32.8104 18.6523 33.3496 18.6523H35.7331L33.2237 25.1358C33.0291 25.6388 33.279 26.2044 33.782 26.399C33.898 26.4438 34.017 26.4651 34.1343 26.4651C34.5259 26.4651 34.8954 26.2278 35.0452 25.8407L38.0689 18.0282C38.1853 17.7278 38.1458 17.3895 37.9638 17.1237Z" fill="white"/>
<path d="M23.1952 26.4648H23.2027C23.7385 26.4648 24.175 26.0323 24.179 25.4955C24.1809 25.2401 24.1844 24.7557 24.1883 24.1522C24.673 24.095 25.049 23.6826 25.049 23.1825C25.049 22.6861 24.6786 22.2763 24.1993 22.214C24.2083 20.3668 24.2127 18.4207 24.1933 18.1477C24.1436 17.4519 23.7425 16.9007 23.1713 16.7432C22.963 16.6859 22.239 16.5632 21.6625 17.3895C21.2783 17.9401 19.52 21.6435 18.9902 22.7655C18.8474 23.068 18.8694 23.4226 19.0484 23.7053C19.2275 23.9879 19.5387 24.1591 19.8733 24.1591H22.2351C22.2322 24.6263 22.229 25.0742 22.226 25.4811C22.222 26.0204 22.6559 26.4608 23.1952 26.4648ZM21.4191 22.2059C21.7099 21.5988 21.9954 21.0083 22.2527 20.483C22.2512 21.0134 22.2489 21.602 22.2459 22.2059H21.4191Z" fill="white"/>
<path d="M14.724 21.0373C13.5144 22.7698 12.7928 23.717 12.4051 24.2258C11.9185 24.8646 11.6741 25.1852 11.8386 25.7193C11.9358 26.0355 12.1749 26.278 12.4942 26.3847C12.6229 26.4277 12.7387 26.4665 14.2476 26.4665C14.8323 26.4665 15.6266 26.4607 16.7114 26.447C17.2507 26.4402 17.6823 25.9975 17.6756 25.4582C17.6688 24.9232 17.233 24.494 16.6994 24.494C16.6952 24.494 15.2669 24.5088 14.6353 24.5109C15.0487 23.9533 15.6018 23.1917 16.3254 22.1553C16.8218 21.4444 17.1458 20.7707 17.2888 20.1528C17.2961 20.121 17.3518 19.6777 17.3518 19.6363C17.3518 18.0167 16.0362 16.699 14.4192 16.699C13.0209 16.699 11.8106 17.6955 11.5416 19.0685C11.4379 19.5978 11.7829 20.1109 12.3122 20.2146C12.8414 20.318 13.3547 19.9733 13.4583 19.444C13.5482 18.9851 13.9523 18.6521 14.4192 18.6521C14.9421 18.6521 15.3705 19.0658 15.3974 19.5845L15.3756 19.7551C15.2831 20.1161 15.0586 20.5582 14.724 21.0373Z" fill="white"/>
</svg>
