<svg calss="header__shape__left" width="101" height="285" viewBox="0 0 101 285" fill="none" xmlns="http://www.w3.org/2000/svg">
<g opacity="0.8">
<path opacity="0.5" d="M-41.4999 260.476C23.6567 260.476 76.4765 207.657 76.4765 142.5C76.4765 77.3435 23.6567 24.5237 -41.4999 24.5237C-106.656 24.5237 -159.476 77.3435 -159.476 142.5C-159.476 207.657 -106.656 260.476 -41.4999 260.476Z" fill="#EEAA2B"/>
<path d="M-41.5683 0V3.41317C-43.2749 3.41317 -44.9644 3.44731 -46.6539 3.4985L-46.7733 0.0853293C-45.0326 0.0341317 -43.309 0 -41.5683 0ZM-36.3632 0.0853293C-34.6225 0.153593 -32.8988 0.238922 -31.1751 0.358383L-31.4141 3.75449C-33.1036 3.63503 -34.7931 3.5497 -36.4826 3.48144L-36.3632 0.0853293ZM-51.9614 0.375449L-51.7054 3.77156C-53.3949 3.89102 -55.0844 4.04461 -56.7569 4.23234L-57.1494 0.853293C-55.4258 0.665569 -53.7021 0.511976 -51.9614 0.375449ZM-25.9871 0.836228C-24.2635 1.02395 -22.5398 1.24581 -20.8162 1.48473L-21.3111 4.86377C-22.9835 4.62485 -24.656 4.40299 -26.3455 4.23234L-25.9871 0.836228ZM-62.3033 1.5018L-61.8084 4.88084C-63.4979 5.11976 -65.1533 5.40988 -66.8257 5.7L-67.4401 2.35509C-65.7335 2.0479 -64.0269 1.75778 -62.3033 1.5018ZM-15.6794 2.33802C-13.9728 2.64521 -12.2662 2.98653 -10.5766 3.36198L-11.3105 6.68982C-12.9659 6.33144 -14.6213 5.99012 -16.2937 5.68293L-15.6794 2.33802ZM-72.5428 3.39611L-71.7919 6.72395C-73.4473 7.0994 -75.1027 7.49192 -76.724 7.91856L-77.5772 4.60778C-75.9219 4.18114 -74.2323 3.77156 -72.5428 3.39611ZM-5.52515 4.57365C-3.83562 5.01737 -2.18024 5.47814 -0.507782 5.97305L-1.48055 9.2497C-3.10181 8.75479 -4.72305 8.31108 -6.37843 7.88443L-5.52515 4.57365ZM-82.6117 6.02425L-81.6218 9.3009C-83.2431 9.79581 -84.8644 10.3078 -86.4515 10.8539L-87.5608 7.62844C-85.9225 7.0482 -84.2671 6.51916 -82.6117 6.02425ZM4.44131 7.57725C6.09671 8.14042 7.73503 8.72066 9.35629 9.3521L8.14461 12.5434C6.55748 11.929 4.97035 11.3659 3.34911 10.8198L4.44131 7.57725ZM-92.4587 9.38623L-91.2299 12.5775C-92.8171 13.1919 -94.3701 13.8234 -95.923 14.4719L-97.2542 11.3317C-95.6841 10.6491 -94.0799 10.0006 -92.4587 9.38623ZM14.203 11.2976C15.8072 11.9802 17.3943 12.697 18.9644 13.4308L17.5138 16.5198C15.9778 15.803 14.4249 15.1033 12.8719 14.4377L14.203 11.2976ZM-102.016 13.4479L-100.565 16.5368C-102.101 17.2536 -103.62 18.0045 -105.122 18.7725L-106.692 15.7347C-105.122 14.9497 -103.569 14.1817 -102.016 13.4479ZM23.6404 15.7177C25.1934 16.5198 26.7123 17.3389 28.2311 18.1922L26.5587 21.1617C25.0739 20.3254 23.5892 19.5234 22.0704 18.7554L23.6404 15.7177ZM-111.231 18.2093L-109.559 21.1787C-111.026 22.015 -112.494 22.8683 -113.928 23.7386L-115.702 20.8204C-114.252 19.9329 -112.75 19.0455 -111.231 18.2093ZM32.7195 20.8374C34.2042 21.7419 35.6719 22.6805 37.1225 23.6362L35.2281 26.4862C33.8117 25.5476 32.3781 24.6431 30.9446 23.7557L32.7195 20.8374ZM-120.105 23.6192L-118.211 26.4692C-119.628 27.4078 -121.01 28.3635 -122.392 29.3533L-124.372 26.5716C-122.972 25.5647 -121.556 24.5749 -120.105 23.6192ZM41.406 26.5886C42.8225 27.5955 44.2048 28.6365 45.5871 29.6946L43.5051 32.391C42.1569 31.35 40.8087 30.3431 39.4263 29.3533L41.406 26.5886ZM-128.553 29.6775L-126.471 32.374C-127.819 33.415 -129.133 34.4731 -130.43 35.5482L-132.615 32.9201C-131.284 31.8278 -129.935 30.7356 -128.553 29.6775ZM49.6488 32.9542C50.9799 34.0635 52.294 35.2069 53.591 36.3674L51.3042 38.9102C50.0413 37.7838 48.7614 36.6746 47.4644 35.5823L49.6488 32.9542ZM-136.54 36.3332L-134.27 38.876C-135.533 40.0024 -136.779 41.1629 -137.99 42.3404L-140.363 39.8829C-139.117 38.6713 -137.837 37.4937 -136.54 36.3332ZM57.3967 39.9C58.6425 41.1117 59.8713 42.3234 61.0829 43.5692L58.6254 45.9413C57.4479 44.7296 56.2533 43.518 55.0246 42.3404L57.3967 39.9ZM-144.049 43.5521L-141.591 45.9243C-142.769 47.1359 -143.929 48.3817 -145.056 49.6446L-147.599 47.3578C-146.421 46.0608 -145.243 44.7979 -144.049 43.5521ZM64.6156 47.3919C65.776 48.6889 66.9024 49.9859 68.0117 51.3171L65.3835 53.5015C64.2913 52.2045 63.182 50.9246 62.0557 49.6617L64.6156 47.3919ZM-150.995 51.3L-148.366 53.4844C-149.459 54.7814 -150.517 56.1126 -151.558 57.4437L-154.254 55.3617C-153.196 53.9793 -152.104 52.6311 -150.995 51.3ZM71.2713 55.3787C72.3293 56.744 73.3704 58.1434 74.3772 59.5428L71.5955 61.5395C70.6057 60.1572 69.5988 58.809 68.5578 57.4608L71.2713 55.3787ZM-157.36 59.5257L-154.578 61.5225C-155.568 62.9048 -156.524 64.3042 -157.463 65.7036L-160.313 63.8093C-159.357 62.3757 -158.384 60.9422 -157.36 59.5257ZM77.3297 63.8264C78.2853 65.2599 79.224 66.7275 80.1284 68.2123L77.2102 69.9871C76.3228 68.5365 75.4183 67.1201 74.4796 65.7036L77.3297 63.8264ZM-163.128 68.2123L-160.21 69.9871C-161.098 71.4377 -161.951 72.8883 -162.787 74.3731L-165.757 72.7006C-164.903 71.1988 -164.033 69.697 -163.128 68.2123ZM82.7566 72.6835C83.6099 74.1853 84.429 75.7213 85.2311 77.2572L82.1934 78.8272C81.4084 77.3254 80.6234 75.8407 79.7871 74.3731L82.7566 72.6835ZM-168.231 77.2913L-165.193 78.8614C-165.978 80.3632 -166.712 81.8991 -167.446 83.435L-170.535 81.9844C-169.801 80.3973 -169.033 78.8443 -168.231 77.2913ZM87.518 81.9162C88.2518 83.4862 88.9686 85.0563 89.6341 86.6605L86.494 87.9916C85.8284 86.4386 85.1458 84.8856 84.429 83.3668L87.518 81.9162ZM-172.668 86.7287L-169.528 88.077C-170.194 89.6299 -170.825 91.2171 -171.44 92.8042L-174.631 91.5925C-173.999 89.9371 -173.351 88.3329 -172.668 86.7287ZM91.5967 91.4731C92.2111 93.0943 92.8084 94.7156 93.3716 96.371L90.1461 97.4802C89.6 95.876 89.0198 94.2889 88.4225 92.7018L91.5967 91.4731ZM-176.406 96.4734L-173.18 97.5826C-173.726 99.1868 -174.255 100.808 -174.733 102.429L-178.01 101.457C-177.498 99.7841 -176.969 98.1287 -176.406 96.4734ZM94.9587 101.32C95.4536 102.975 95.9314 104.648 96.3752 106.337L93.0644 107.208C92.6377 105.569 92.1769 103.931 91.682 102.31L94.9587 101.32ZM-179.409 106.457L-176.099 107.31C-176.525 108.949 -176.918 110.587 -177.293 112.242L-180.621 111.508C-180.246 109.819 -179.836 108.129 -179.409 106.457ZM97.5868 111.389C97.9623 113.078 98.3036 114.785 98.6278 116.492L95.2659 117.123C94.9587 115.451 94.6174 113.795 94.259 112.14L97.5868 111.389ZM-181.645 116.628L-178.283 117.243C-178.607 118.898 -178.88 120.57 -179.119 122.243L-182.498 121.748C-182.242 120.041 -181.969 118.318 -181.645 116.628ZM99.4811 121.611C99.7371 123.318 99.959 125.042 100.147 126.782L96.7506 127.158C96.5629 125.468 96.341 123.796 96.1021 122.123L99.4811 121.611ZM-183.164 126.919L-179.768 127.294C-179.955 128.967 -180.109 130.656 -180.228 132.346L-183.625 132.107C-183.505 130.366 -183.351 128.643 -183.164 126.919ZM100.625 131.953C100.744 133.677 100.846 135.418 100.915 137.158L97.5015 137.278C97.4332 135.571 97.3479 133.882 97.2284 132.209L100.625 131.953ZM-183.898 137.295L-180.484 137.414C-180.553 139.104 -180.587 140.793 -180.587 142.5V142.79H-184V142.466C-184 140.759 -183.966 139.019 -183.898 137.295ZM101 142.363V142.5C101 144.19 100.966 145.879 100.915 147.551L97.5015 147.432C97.5527 145.794 97.5868 144.138 97.5868 142.5L101 142.363ZM-180.484 147.876C-180.416 149.582 -180.331 151.272 -180.194 152.944L-183.59 153.2C-183.727 151.477 -183.812 149.736 -183.881 148.012L-180.484 147.876ZM97.2284 152.518L100.625 152.757C100.505 154.497 100.352 156.221 100.164 157.945L96.7677 157.586C96.9554 155.897 97.109 154.207 97.2284 152.518ZM-179.734 157.996C-179.546 159.685 -179.324 161.358 -179.085 163.03L-182.464 163.525C-182.72 161.819 -182.942 160.095 -183.13 158.371L-179.734 157.996ZM96.1533 162.621L99.5323 163.116C99.2763 164.839 99.0033 166.546 98.6961 168.252L95.3341 167.638C95.6242 165.966 95.8973 164.293 96.1533 162.621ZM-178.249 168.048C-177.942 169.72 -177.6 171.375 -177.225 173.031L-180.553 173.782C-180.928 172.092 -181.269 170.386 -181.594 168.679L-178.249 168.048ZM94.3272 172.604L97.6551 173.338C97.2796 175.045 96.8701 176.717 96.4434 178.407L93.1326 177.553C93.5593 175.915 93.9518 174.26 94.3272 172.604ZM-176.03 177.963C-175.604 179.601 -175.143 181.24 -174.648 182.861L-177.907 183.851C-178.402 182.195 -178.88 180.523 -179.324 178.85L-176.03 177.963ZM91.7674 182.434L95.044 183.407C94.5491 185.079 94.0201 186.735 93.4569 188.373L90.2314 187.281C90.7776 185.677 91.2895 184.055 91.7674 182.434ZM-173.078 187.673C-172.532 189.278 -171.951 190.865 -171.337 192.452L-174.528 193.681C-175.143 192.059 -175.74 190.438 -176.303 188.783L-173.078 187.673ZM88.4907 192.059L91.682 193.271C91.0677 194.892 90.4192 196.513 89.7365 198.118L86.5964 196.787C87.262 195.234 87.8934 193.646 88.4907 192.059ZM-169.443 197.145C-168.777 198.698 -168.095 200.234 -167.361 201.77L-170.45 203.22C-171.184 201.65 -171.9 200.08 -172.583 198.493L-169.443 197.145ZM84.5144 201.428L87.6033 202.879C86.8694 204.449 86.1015 206.019 85.2994 207.555L82.2617 206.002C83.0467 204.5 83.7976 202.981 84.5144 201.428ZM-165.125 206.309C-164.34 207.811 -163.538 209.296 -162.719 210.763L-165.688 212.436C-166.542 210.934 -167.361 209.415 -168.163 207.862L-165.125 206.309ZM79.8724 210.49L82.8419 212.163C81.9886 213.682 81.1183 215.184 80.2138 216.651L77.2955 214.876C78.1829 213.426 79.0362 211.958 79.8724 210.49ZM-160.142 215.132C-159.254 216.583 -158.35 217.999 -157.411 219.416L-160.261 221.31C-161.217 219.877 -162.156 218.409 -163.06 216.924L-160.142 215.132ZM74.565 219.16L77.4149 221.037C76.4593 222.488 75.4695 223.921 74.4626 225.321L71.6808 223.341C72.6707 221.976 73.6263 220.576 74.565 219.16ZM-154.51 223.58C-153.52 224.962 -152.513 226.31 -151.472 227.642L-154.169 229.724C-155.227 228.358 -156.268 226.959 -157.275 225.56L-154.51 223.58ZM68.6602 227.437L71.3566 229.519C70.2985 230.901 69.2063 232.249 68.097 233.581L65.4689 231.396C66.5611 230.099 67.6192 228.768 68.6602 227.437ZM-148.298 231.601C-147.206 232.898 -146.097 234.178 -144.97 235.441L-147.513 237.728C-148.674 236.431 -149.8 235.134 -150.926 233.802L-148.298 231.601ZM62.1581 235.253L64.7009 237.523C63.5404 238.82 62.3629 240.083 61.1512 241.346L58.6937 238.973C59.8713 237.745 61.0318 236.516 62.1581 235.253ZM-141.506 239.161C-140.328 240.373 -139.134 241.584 -137.905 242.745L-140.277 245.202C-141.523 244.008 -142.752 242.779 -143.963 241.533L-141.506 239.161ZM55.1099 242.557L57.482 245.015C56.2362 246.226 54.9734 247.404 53.6764 248.564L51.3895 246.022C52.6524 244.895 53.8811 243.735 55.1099 242.557ZM-134.185 246.209C-132.922 247.336 -131.642 248.445 -130.345 249.537L-132.529 252.165C-133.86 251.056 -135.175 249.93 -136.472 248.769L-134.185 246.209ZM47.5497 249.349L49.7341 251.978C48.403 253.087 47.0548 254.179 45.6725 255.237L43.5904 252.541C44.9386 251.5 46.2527 250.425 47.5497 249.349ZM-126.369 252.694C-125.02 253.735 -123.672 254.742 -122.29 255.732L-124.269 258.514C-125.686 257.507 -127.085 256.466 -128.451 255.408L-126.369 252.694ZM39.5287 255.561L41.5254 258.343C40.126 259.35 38.6925 260.34 37.2419 261.296L35.3476 258.446C36.7641 257.507 38.1464 256.551 39.5287 255.561ZM-118.109 258.616C-116.692 259.555 -115.259 260.459 -113.808 261.347L-115.583 264.265C-117.068 263.361 -118.535 262.422 -119.986 261.466L-118.109 258.616ZM31.0811 261.176L32.856 264.094C31.3713 264.999 29.8865 265.869 28.3677 266.722L26.6952 263.753C28.1799 262.917 29.6305 262.063 31.0811 261.176ZM-109.422 263.907C-107.937 264.743 -106.453 265.545 -104.934 266.313L-106.487 269.351C-108.04 268.549 -109.576 267.729 -111.078 266.876L-109.422 263.907ZM22.241 266.159L23.8111 269.197C22.2751 269.982 20.7222 270.75 19.1521 271.501L17.7015 268.412C19.2204 267.678 20.7392 266.927 22.241 266.159ZM-100.36 268.548C-98.8243 269.265 -97.2713 269.965 -95.7012 270.613L-97.0323 273.754C-98.6365 273.071 -100.224 272.371 -101.794 271.637L-100.36 268.548ZM13.0767 270.477L14.4249 273.617C12.8377 274.3 11.2335 274.948 9.61227 275.563L8.38354 272.371C9.97067 271.774 11.5237 271.125 13.0767 270.477ZM-90.991 272.525C-89.4039 273.122 -87.8168 273.702 -86.1955 274.249L-87.2877 277.474C-88.9431 276.911 -90.5814 276.331 -92.2027 275.699L-90.991 272.525ZM3.60509 274.112L4.71437 277.337C3.07605 277.901 1.42065 278.43 -0.234726 278.942L-1.22455 275.665C0.396698 275.17 2.01796 274.658 3.60509 274.112ZM-81.3659 275.784C-79.7446 276.262 -78.1063 276.723 -76.468 277.15L-77.3213 280.46C-79.0108 280.034 -80.6832 279.556 -82.3386 279.061L-81.3659 275.784ZM-6.10539 277.047L-5.23503 280.358C-6.90749 280.802 -8.597 281.211 -10.2865 281.587L-11.0374 278.259C-9.38203 277.866 -7.74371 277.474 -6.10539 277.047ZM-71.5189 278.344C-69.8635 278.703 -68.2081 279.044 -66.5356 279.351L-67.15 282.713C-68.8566 282.406 -70.5632 282.065 -72.2527 281.689L-71.5189 278.344ZM-16.0207 279.266L-15.3892 282.628C-17.0958 282.935 -18.8024 283.225 -20.526 283.481L-21.021 280.102C-19.3485 279.846 -17.676 279.573 -16.0207 279.266ZM-61.5353 280.153C-59.8629 280.392 -58.1904 280.597 -56.5009 280.785L-56.8593 284.181C-58.5829 283.993 -60.3066 283.771 -62.0302 283.532L-61.5353 280.153ZM-26.0724 280.734L-25.697 284.13C-27.4207 284.317 -29.1443 284.471 -30.885 284.607L-31.141 281.211C-29.4344 281.075 -27.7449 280.921 -26.0724 280.734ZM-51.4323 281.246C-49.7428 281.365 -48.0533 281.45 -46.3638 281.519L-46.4832 284.932C-48.224 284.881 -49.9647 284.778 -51.6712 284.659L-51.4323 281.246ZM-36.1925 281.484L-36.0731 284.898C-37.7967 284.966 -39.5374 285 -41.2782 285V281.587C-39.5716 281.587 -37.882 281.553 -36.1925 281.484Z" fill="#EEAA2B"/>
</g>
</svg>
